<svg width="29" height="29" viewBox="0 0 29 29" fill="none" xmlns="http://www.w3.org/2000/svg">
<circle cx="14.5" cy="14.5" r="14.5" fill="#5E59EC"/>
<path d="M18.9874 21.9977L18.9579 13.2519L10.261 22L6 21.9977L16.9001 11.0343H12.911C12.4945 11.0338 12.0861 11.151 11.7323 11.3724C11.3785 11.5938 11.0935 11.9107 10.9096 12.287C10.7257 12.6633 10.6504 13.084 10.692 13.5013C10.7337 13.9186 10.8908 14.3158 11.1454 14.6477L9.00848 16.8051C8.33112 16.0463 7.88672 15.1062 7.72907 14.0985C7.57141 13.0907 7.70726 12.0586 8.12017 11.127C8.53308 10.1953 9.20535 9.40417 10.0556 8.8492C10.9059 8.29424 11.8977 7.99927 12.911 8H22V22L18.9874 21.9977Z" fill="white"/>
</svg>
